<svg xmlns="http://www.w3.org/2000/svg" width="20.185" height="20.173" viewBox="0 0 20.185 20.173"><defs><style>.a{fill:#fff;}</style></defs><path class="a" d="M22.319,18.261l-3.356-3.335a1.128,1.128,0,0,0-1.572,0L16.33,15.988a1.41,1.41,0,0,1-2,0L9.087,10.742a1.41,1.41,0,0,1,0-2l1.062-1.062a1.128,1.128,0,0,0,0-1.572L6.815,2.756a1.1,1.1,0,0,0-1.4-.149,5.667,5.667,0,0,0-.956.807,6.82,6.82,0,0,0,0,9.664L11.976,20.6a6.8,6.8,0,0,0,4.843,2,6.714,6.714,0,0,0,4.821-2,6.869,6.869,0,0,0,.807-.956A1.1,1.1,0,0,0,22.319,18.261Z" transform="translate(-2.45 -2.421)"/></svg>