<svg xmlns="http://www.w3.org/2000/svg" width="28.537" height="28.537" viewBox="0 0 28.537 28.537"><defs><style>.a{fill:#fff;}</style></defs><path class="a" d="M19.869,4.333,16.513,7.668a1.128,1.128,0,0,1-1.572,0L13.88,6.606a1.41,1.41,0,0,0-2,0L6.637,11.852a1.41,1.41,0,0,0,0,2L7.7,14.91a1.128,1.128,0,0,1,0,1.572L4.365,19.838a1.1,1.1,0,0,1-1.4.149,5.667,5.667,0,0,1-.956-.807,6.82,6.82,0,0,1,0-9.664L9.526,2a6.8,6.8,0,0,1,4.843-2,6.714,6.714,0,0,1,4.821,2A6.87,6.87,0,0,1,20,2.953,1.1,1.1,0,0,1,19.869,4.333Z" transform="translate(14.265 0) rotate(45)"/></svg>